<svg width="18" height="15" viewBox="0 0 18 15" fill="none" xmlns="http://www.w3.org/2000/svg">
<path d="M1.01501 6.875H1.89001V12.125H1.01501H0.987671C0.522827 12.125 0.112671 11.7422 0.112671 11.2773C0.112671 11.2773 0.140015 11.2773 0.140015 11.25V7.75C0.140015 7.28516 0.522827 6.875 0.987671 6.875C0.987671 6.875 0.987671 6.875 1.01501 6.875ZM15.015 5.5625V13C14.9877 13.9844 14.222 14.75 13.265 14.75H4.51501C3.53064 14.75 2.76501 13.9844 2.76501 13V5.5625C2.76501 4.35938 3.72205 3.375 4.92517 3.375C4.92517 3.375 4.92517 3.375 4.95251 3.375H8.01501V1.625C8.01501 1.16016 8.39783 0.75 8.89001 0.75C9.35486 0.75 9.76501 1.16016 9.76501 1.625V3.375H12.8275C14.0306 3.375 15.015 4.35938 15.015 5.5625ZM7.35876 7.75C7.35876 7.14844 6.86658 6.65625 6.26501 6.65625C5.63611 6.65625 5.17126 7.14844 5.17126 7.75C5.17126 8.37891 5.63611 8.84375 6.26501 8.84375C6.86658 8.84375 7.35876 8.37891 7.35876 7.75ZM7.14001 11.25H5.39001V12.125H7.14001V11.25ZM9.76501 11.25H8.01501V12.125H9.76501V11.25ZM12.6088 7.75C12.6088 7.14844 12.1166 6.65625 11.515 6.65625C10.8861 6.65625 10.4213 7.14844 10.4213 7.75C10.4213 8.37891 10.8861 8.84375 11.515 8.84375C12.1166 8.84375 12.6088 8.37891 12.6088 7.75ZM12.39 11.25H10.64V12.125H12.39V11.25ZM17.64 7.75V11.25V11.2773C17.64 11.7422 17.2299 12.1523 16.765 12.1523V12.125H15.89V6.875H16.765C17.2299 6.875 17.64 7.28516 17.64 7.75Z" fill="white"/>
</svg>
